<svg id="Layer_2" data-name="Layer 2" xmlns="http://www.w3.org/2000/svg" xmlns:xlink="http://www.w3.org/1999/xlink" viewBox="0 0 85.88 85.88"><defs><style>.cls-1{fill:none;}.cls-2{fill:url(#linear-gradient);}.cls-3{fill:url(#linear-gradient-2);}.cls-4{fill:url(#linear-gradient-3);}.cls-5{fill:url(#linear-gradient-4);}</style><linearGradient id="linear-gradient" x1="705.15" y1="649.5" x2="705.15" y2="573.63" gradientUnits="userSpaceOnUse"><stop offset="0"/><stop offset="0.23" stop-color="#030303"/><stop offset="0.4" stop-color="#0d0d0d"/><stop offset="0.56" stop-color="#1d1d1d"/><stop offset="0.7" stop-color="#343434"/><stop offset="0.84" stop-color="#515151"/><stop offset="0.97" stop-color="#757575"/><stop offset="1" stop-color="gray"/></linearGradient><linearGradient id="linear-gradient-2" x1="705.15" y1="649.5" x2="705.15" y2="573.63" gradientTransform="translate(1347.33 1223.14) rotate(180)" xlink:href="#linear-gradient"/><linearGradient id="linear-gradient-3" x1="153.79" y1="649.38" x2="153.79" y2="573.75" gradientTransform="matrix(-1, 0, 0, 1, 861.19, 0)" xlink:href="#linear-gradient"/><linearGradient id="linear-gradient-4" x1="187.53" y1="649.5" x2="187.53" y2="573.63" gradientTransform="matrix(1, 0, 0, -1, 486.13, 1223.14)" xlink:href="#linear-gradient"/></defs><title>previous_btn</title><rect class="cls-1" x="662.21" y="568.63" width="85.88" height="85.88" transform="translate(748.09 654.51) rotate(-180)"/><path class="cls-2" d="M738.41,574l-65,37.54,65,37.54a2,2,0,0,0,3-1.73V575.76A2,2,0,0,0,738.41,574Z" transform="translate(-662.21 -568.63)"/><rect class="cls-3" x="668.89" y="573.63" width="9.55" height="75.87" rx="2" ry="2" transform="translate(685.12 654.51) rotate(-180)"/><path class="cls-4" d="M738.41,574l-65,37.54,65,37.54a2,2,0,0,0,3-1.73V575.76A2,2,0,0,0,738.41,574Z" transform="translate(-662.21 -568.63)"/><rect class="cls-5" x="668.89" y="573.63" width="9.55" height="75.87" rx="2" ry="2" transform="translate(685.12 654.51) rotate(-180)"/></svg>