<svg id="Layer_2" data-name="Layer 2" xmlns="http://www.w3.org/2000/svg" xmlns:xlink="http://www.w3.org/1999/xlink" viewBox="0 0 85.88 85.88">
  <defs>
    <style>
      .cls-1 {
        fill: url(#linear-gradient);
      }

      .cls-2 {
        fill: none;
      }
    </style>
    <linearGradient id="linear-gradient" x1="541.01" y1="648.28" x2="541.01" y2="585.43" gradientUnits="userSpaceOnUse">
      <stop offset="0"/>
      <stop offset="0.11" stop-color="#040000"/>
      <stop offset="0.24" stop-color="#100"/>
      <stop offset="0.37" stop-color="#270000"/>
      <stop offset="0.5" stop-color="#460000"/>
      <stop offset="0.63" stop-color="#6d0000"/>
      <stop offset="0.77" stop-color="#9d0000"/>
      <stop offset="0.91" stop-color="#d40000"/>
      <stop offset="1" stop-color="red"/>
    </linearGradient>
  </defs>
  <title>shuffle_btn</title>
  <g>
    <path id="shuffle" class="cls-1" d="M566.13,598.61h-7.23a1.63,1.63,0,0,0-1.15.48c-6.14,6.11-11.41,11.69-15.93,16.37a1.72,1.72,0,0,0,0,2.38c6.76,7,12.95,13.34,15.93,16.36a1.61,1.61,0,0,0,1.15.48h7.22a1.66,1.66,0,0,0,1.64-1.69h0a1.64,1.64,0,0,1,2.46-1.46l11.45,6.8a1.71,1.71,0,0,1,0,2.92L570.23,648a1.64,1.64,0,0,1-2.46-1.46v-0.47a1.66,1.66,0,0,0-1.64-1.69H555a1.62,1.62,0,0,1-1.16-.49l-18.7-19.12a1.61,1.61,0,0,0-2.32,0c-18.14,18.65-18.23,18.65-18.52,18.85l-0.8.51a1.61,1.61,0,0,1-.86.25H501.15a1.66,1.66,0,0,1-1.64-1.69v-6.38a1.66,1.66,0,0,1,1.64-1.69H509a1.61,1.61,0,0,0,1.15-.48c3-3,9.16-9.4,15.92-16.36a1.72,1.72,0,0,0,0-2.39c-8.87-9.09-13.47-13.45-15.87-16.27a1.6,1.6,0,0,0-1.23-.57h-7.86a1.66,1.66,0,0,1-1.64-1.69v-6.38a1.66,1.66,0,0,1,1.64-1.69h12.42a1.64,1.64,0,0,1,1.48,1l0.4,0.86a1.66,1.66,0,0,0,.32.46c2.23,2.3,9.26,9.56,17.05,17.58a1.61,1.61,0,0,0,2.32,0c9.46-9.73,17.79-18.36,17.79-18.36l0.9-1a1.62,1.62,0,0,1,1.19-.52h11.12a1.66,1.66,0,0,0,1.64-1.69v-0.05a1.64,1.64,0,0,1,2.46-1.46l11.45,6.8a1.71,1.71,0,0,1,0,2.92l-11.45,6.8a1.64,1.64,0,0,1-2.46-1.46v-0.43A1.66,1.66,0,0,0,566.13,598.61Z" transform="translate(-498.07 -573.91)"/>
    <rect class="cls-2" x="498.07" y="573.91" width="85.88" height="85.88" transform="translate(583.95 659.8) rotate(-180)"/>
  </g>
</svg>
